<mxfile host="app.diagrams.net" modified="2023-09-27T04:17:59.118Z" agent="Mozilla/5.0 (X11; Linux x86_64) AppleWebKit/537.36 (KHTML, like Gecko) Chrome/117.0.0.0 Safari/537.36" etag="NtBNav80WbV9Eg-RfIyU" version="21.8.2" type="device">
  <diagram name="Page-1" id="85hTtyZkeVBAQqya0IYv">
    <mxGraphModel dx="2514" dy="945" grid="1" gridSize="10" guides="1" tooltips="1" connect="1" arrows="1" fold="1" page="1" pageScale="1" pageWidth="827" pageHeight="1169" math="0" shadow="0">
      <root>
        <mxCell id="0" />
        <mxCell id="1" parent="0" />
        <mxCell id="XMAbvpqeA-bFauw44eoh-87" value="" style="rhombus;whiteSpace=wrap;html=1;" vertex="1" parent="1">
          <mxGeometry x="560" y="530" width="100" height="100" as="geometry" />
        </mxCell>
        <mxCell id="XMAbvpqeA-bFauw44eoh-49" value="FirstName" style="ellipse;whiteSpace=wrap;html=1;" vertex="1" parent="1">
          <mxGeometry x="-550" y="450" width="120" height="80" as="geometry" />
        </mxCell>
        <mxCell id="XMAbvpqeA-bFauw44eoh-50" value="Student" style="rounded=0;whiteSpace=wrap;html=1;" vertex="1" parent="1">
          <mxGeometry x="-490" y="650" width="120" height="60" as="geometry" />
        </mxCell>
        <mxCell id="XMAbvpqeA-bFauw44eoh-51" value="Student id" style="ellipse;whiteSpace=wrap;html=1;" vertex="1" parent="1">
          <mxGeometry x="-720" y="480" width="120" height="80" as="geometry" />
        </mxCell>
        <mxCell id="XMAbvpqeA-bFauw44eoh-52" value="Student year" style="ellipse;whiteSpace=wrap;html=1;" vertex="1" parent="1">
          <mxGeometry x="-700" y="650" width="120" height="80" as="geometry" />
        </mxCell>
        <mxCell id="XMAbvpqeA-bFauw44eoh-53" value="LastName" style="ellipse;whiteSpace=wrap;html=1;" vertex="1" parent="1">
          <mxGeometry x="-370" y="470" width="120" height="80" as="geometry" />
        </mxCell>
        <mxCell id="XMAbvpqeA-bFauw44eoh-54" value="" style="endArrow=none;html=1;rounded=0;exitX=0.583;exitY=0.975;exitDx=0;exitDy=0;exitPerimeter=0;entryX=0.5;entryY=0;entryDx=0;entryDy=0;" edge="1" parent="1" source="XMAbvpqeA-bFauw44eoh-49" target="XMAbvpqeA-bFauw44eoh-50">
          <mxGeometry width="50" height="50" relative="1" as="geometry">
            <mxPoint x="-440" y="565" as="sourcePoint" />
            <mxPoint x="-390" y="515" as="targetPoint" />
          </mxGeometry>
        </mxCell>
        <mxCell id="XMAbvpqeA-bFauw44eoh-55" value="" style="endArrow=none;html=1;rounded=0;exitX=1;exitY=0.65;exitDx=0;exitDy=0;exitPerimeter=0;" edge="1" parent="1" source="XMAbvpqeA-bFauw44eoh-51" target="XMAbvpqeA-bFauw44eoh-50">
          <mxGeometry width="50" height="50" relative="1" as="geometry">
            <mxPoint x="-130" y="770" as="sourcePoint" />
            <mxPoint x="-80" y="720" as="targetPoint" />
          </mxGeometry>
        </mxCell>
        <mxCell id="XMAbvpqeA-bFauw44eoh-56" value="" style="endArrow=none;html=1;rounded=0;exitX=0;exitY=0.5;exitDx=0;exitDy=0;entryX=1;entryY=0.5;entryDx=0;entryDy=0;" edge="1" parent="1" source="XMAbvpqeA-bFauw44eoh-50" target="XMAbvpqeA-bFauw44eoh-52">
          <mxGeometry width="50" height="50" relative="1" as="geometry">
            <mxPoint x="-270" y="690" as="sourcePoint" />
            <mxPoint x="-210" y="814" as="targetPoint" />
          </mxGeometry>
        </mxCell>
        <mxCell id="XMAbvpqeA-bFauw44eoh-57" value="" style="endArrow=none;html=1;rounded=0;exitX=0.5;exitY=1;exitDx=0;exitDy=0;entryX=0.75;entryY=0;entryDx=0;entryDy=0;" edge="1" parent="1" source="XMAbvpqeA-bFauw44eoh-53" target="XMAbvpqeA-bFauw44eoh-50">
          <mxGeometry width="50" height="50" relative="1" as="geometry">
            <mxPoint x="-320" y="586" as="sourcePoint" />
            <mxPoint x="-260" y="710" as="targetPoint" />
          </mxGeometry>
        </mxCell>
        <mxCell id="XMAbvpqeA-bFauw44eoh-58" value="" style="endArrow=none;html=1;rounded=0;exitX=0.5;exitY=1;exitDx=0;exitDy=0;entryX=0.5;entryY=0;entryDx=0;entryDy=0;" edge="1" parent="1" source="XMAbvpqeA-bFauw44eoh-50" target="XMAbvpqeA-bFauw44eoh-71">
          <mxGeometry width="50" height="50" relative="1" as="geometry">
            <mxPoint x="-430" y="710" as="sourcePoint" />
            <mxPoint x="-533" y="779" as="targetPoint" />
          </mxGeometry>
        </mxCell>
        <mxCell id="XMAbvpqeA-bFauw44eoh-59" value="is offered" style="rhombus;whiteSpace=wrap;html=1;" vertex="1" parent="1">
          <mxGeometry x="570" y="540" width="80" height="80" as="geometry" />
        </mxCell>
        <mxCell id="XMAbvpqeA-bFauw44eoh-60" value="Course titile" style="ellipse;whiteSpace=wrap;html=1;" vertex="1" parent="1">
          <mxGeometry x="1000" y="215" width="120" height="80" as="geometry" />
        </mxCell>
        <mxCell id="XMAbvpqeA-bFauw44eoh-61" value="Courses" style="rounded=0;whiteSpace=wrap;html=1;" vertex="1" parent="1">
          <mxGeometry x="880" y="475" width="120" height="60" as="geometry" />
        </mxCell>
        <mxCell id="XMAbvpqeA-bFauw44eoh-62" value="Course id&lt;span style=&quot;white-space: pre;&quot;&gt;&#x9;&lt;/span&gt;" style="ellipse;whiteSpace=wrap;html=1;" vertex="1" parent="1">
          <mxGeometry x="810" y="235" width="120" height="80" as="geometry" />
        </mxCell>
        <mxCell id="XMAbvpqeA-bFauw44eoh-63" value="Regulations" style="ellipse;whiteSpace=wrap;html=1;" vertex="1" parent="1">
          <mxGeometry x="1150" y="475" width="120" height="80" as="geometry" />
        </mxCell>
        <mxCell id="XMAbvpqeA-bFauw44eoh-64" value="Semester" style="ellipse;whiteSpace=wrap;html=1;" vertex="1" parent="1">
          <mxGeometry x="1130" y="325" width="120" height="80" as="geometry" />
        </mxCell>
        <mxCell id="XMAbvpqeA-bFauw44eoh-65" value="" style="endArrow=none;html=1;rounded=0;exitX=0.583;exitY=0.975;exitDx=0;exitDy=0;exitPerimeter=0;entryX=0.5;entryY=0;entryDx=0;entryDy=0;" edge="1" parent="1" source="XMAbvpqeA-bFauw44eoh-60" target="XMAbvpqeA-bFauw44eoh-61">
          <mxGeometry width="50" height="50" relative="1" as="geometry">
            <mxPoint x="1180" y="330" as="sourcePoint" />
            <mxPoint x="1230" y="280" as="targetPoint" />
          </mxGeometry>
        </mxCell>
        <mxCell id="XMAbvpqeA-bFauw44eoh-66" value="" style="endArrow=none;html=1;rounded=0;exitX=0.45;exitY=1.038;exitDx=0;exitDy=0;exitPerimeter=0;" edge="1" parent="1" source="XMAbvpqeA-bFauw44eoh-62" target="XMAbvpqeA-bFauw44eoh-61">
          <mxGeometry width="50" height="50" relative="1" as="geometry">
            <mxPoint x="1490" y="535" as="sourcePoint" />
            <mxPoint x="1540" y="485" as="targetPoint" />
          </mxGeometry>
        </mxCell>
        <mxCell id="XMAbvpqeA-bFauw44eoh-67" value="" style="endArrow=none;html=1;rounded=0;" edge="1" parent="1" source="XMAbvpqeA-bFauw44eoh-61" target="XMAbvpqeA-bFauw44eoh-63">
          <mxGeometry width="50" height="50" relative="1" as="geometry">
            <mxPoint x="1250" y="445" as="sourcePoint" />
            <mxPoint x="1410" y="579" as="targetPoint" />
          </mxGeometry>
        </mxCell>
        <mxCell id="XMAbvpqeA-bFauw44eoh-68" value="" style="endArrow=none;html=1;rounded=0;exitX=0.017;exitY=0.688;exitDx=0;exitDy=0;entryX=0.75;entryY=0;entryDx=0;entryDy=0;exitPerimeter=0;" edge="1" parent="1" source="XMAbvpqeA-bFauw44eoh-64" target="XMAbvpqeA-bFauw44eoh-61">
          <mxGeometry width="50" height="50" relative="1" as="geometry">
            <mxPoint x="1300" y="351" as="sourcePoint" />
            <mxPoint x="1360" y="475" as="targetPoint" />
          </mxGeometry>
        </mxCell>
        <mxCell id="XMAbvpqeA-bFauw44eoh-71" value="Student dpt" style="ellipse;whiteSpace=wrap;html=1;" vertex="1" parent="1">
          <mxGeometry x="-610" y="790" width="120" height="80" as="geometry" />
        </mxCell>
        <mxCell id="XMAbvpqeA-bFauw44eoh-72" value="Teaches" style="rhombus;whiteSpace=wrap;html=1;" vertex="1" parent="1">
          <mxGeometry x="190" y="1080" width="80" height="80" as="geometry" />
        </mxCell>
        <mxCell id="XMAbvpqeA-bFauw44eoh-74" value="Id" style="ellipse;whiteSpace=wrap;html=1;" vertex="1" parent="1">
          <mxGeometry x="-80" y="1280" width="120" height="80" as="geometry" />
        </mxCell>
        <mxCell id="XMAbvpqeA-bFauw44eoh-75" value="Instructor" style="rounded=0;whiteSpace=wrap;html=1;" vertex="1" parent="1">
          <mxGeometry x="170" y="1350" width="120" height="60" as="geometry" />
        </mxCell>
        <mxCell id="XMAbvpqeA-bFauw44eoh-76" value="Department" style="ellipse;whiteSpace=wrap;html=1;" vertex="1" parent="1">
          <mxGeometry x="-40" y="1470" width="120" height="80" as="geometry" />
        </mxCell>
        <mxCell id="XMAbvpqeA-bFauw44eoh-77" value="Title" style="ellipse;whiteSpace=wrap;html=1;" vertex="1" parent="1">
          <mxGeometry x="170" y="1510" width="120" height="80" as="geometry" />
        </mxCell>
        <mxCell id="XMAbvpqeA-bFauw44eoh-78" value="Name" style="ellipse;whiteSpace=wrap;html=1;" vertex="1" parent="1">
          <mxGeometry x="470" y="1320" width="120" height="80" as="geometry" />
        </mxCell>
        <mxCell id="XMAbvpqeA-bFauw44eoh-79" value="" style="endArrow=none;html=1;rounded=0;entryX=0;entryY=0.5;entryDx=0;entryDy=0;" edge="1" parent="1" source="XMAbvpqeA-bFauw44eoh-74" target="XMAbvpqeA-bFauw44eoh-75">
          <mxGeometry width="50" height="50" relative="1" as="geometry">
            <mxPoint x="200" y="1265" as="sourcePoint" />
            <mxPoint x="250" y="1215" as="targetPoint" />
          </mxGeometry>
        </mxCell>
        <mxCell id="XMAbvpqeA-bFauw44eoh-80" value="" style="endArrow=none;html=1;rounded=0;" edge="1" parent="1" source="XMAbvpqeA-bFauw44eoh-76" target="XMAbvpqeA-bFauw44eoh-75">
          <mxGeometry width="50" height="50" relative="1" as="geometry">
            <mxPoint x="80" y="1500" as="sourcePoint" />
            <mxPoint x="560" y="1420" as="targetPoint" />
          </mxGeometry>
        </mxCell>
        <mxCell id="XMAbvpqeA-bFauw44eoh-81" value="" style="endArrow=none;html=1;rounded=0;" edge="1" parent="1" source="XMAbvpqeA-bFauw44eoh-75" target="XMAbvpqeA-bFauw44eoh-77">
          <mxGeometry width="50" height="50" relative="1" as="geometry">
            <mxPoint x="370" y="1390" as="sourcePoint" />
            <mxPoint x="430" y="1514" as="targetPoint" />
          </mxGeometry>
        </mxCell>
        <mxCell id="XMAbvpqeA-bFauw44eoh-82" value="" style="endArrow=none;html=1;rounded=0;exitX=0.5;exitY=1;exitDx=0;exitDy=0;entryX=1;entryY=0.5;entryDx=0;entryDy=0;" edge="1" parent="1" source="XMAbvpqeA-bFauw44eoh-78" target="XMAbvpqeA-bFauw44eoh-75">
          <mxGeometry width="50" height="50" relative="1" as="geometry">
            <mxPoint x="320" y="1286" as="sourcePoint" />
            <mxPoint x="380" y="1410" as="targetPoint" />
          </mxGeometry>
        </mxCell>
        <mxCell id="XMAbvpqeA-bFauw44eoh-89" value="" style="endArrow=none;html=1;rounded=0;exitX=0.5;exitY=1;exitDx=0;exitDy=0;entryX=0.5;entryY=0;entryDx=0;entryDy=0;" edge="1" parent="1" source="XMAbvpqeA-bFauw44eoh-72" target="XMAbvpqeA-bFauw44eoh-75">
          <mxGeometry width="50" height="50" relative="1" as="geometry">
            <mxPoint x="320" y="1180" as="sourcePoint" />
            <mxPoint x="200" y="1260" as="targetPoint" />
          </mxGeometry>
        </mxCell>
        <mxCell id="XMAbvpqeA-bFauw44eoh-91" value="Credits" style="ellipse;whiteSpace=wrap;html=1;" vertex="1" parent="1">
          <mxGeometry x="1130" y="605" width="120" height="80" as="geometry" />
        </mxCell>
        <mxCell id="XMAbvpqeA-bFauw44eoh-92" value="" style="endArrow=none;html=1;rounded=0;exitX=0.5;exitY=1;exitDx=0;exitDy=0;" edge="1" parent="1" target="XMAbvpqeA-bFauw44eoh-91" source="XMAbvpqeA-bFauw44eoh-61">
          <mxGeometry width="50" height="50" relative="1" as="geometry">
            <mxPoint x="930" y="614" as="sourcePoint" />
            <mxPoint x="1340" y="679" as="targetPoint" />
          </mxGeometry>
        </mxCell>
        <mxCell id="XMAbvpqeA-bFauw44eoh-93" value="Syllabus" style="ellipse;whiteSpace=wrap;html=1;" vertex="1" parent="1">
          <mxGeometry x="990" y="690" width="120" height="80" as="geometry" />
        </mxCell>
        <mxCell id="XMAbvpqeA-bFauw44eoh-94" value="" style="endArrow=none;html=1;rounded=0;exitX=0.5;exitY=1;exitDx=0;exitDy=0;" edge="1" parent="1" target="XMAbvpqeA-bFauw44eoh-93" source="XMAbvpqeA-bFauw44eoh-61">
          <mxGeometry width="50" height="50" relative="1" as="geometry">
            <mxPoint x="870" y="694" as="sourcePoint" />
            <mxPoint x="1280" y="759" as="targetPoint" />
          </mxGeometry>
        </mxCell>
        <mxCell id="XMAbvpqeA-bFauw44eoh-95" value="Year" style="ellipse;whiteSpace=wrap;html=1;" vertex="1" parent="1">
          <mxGeometry x="-100" y="560" width="120" height="80" as="geometry" />
        </mxCell>
        <mxCell id="XMAbvpqeA-bFauw44eoh-96" value="Courses offerings" style="rounded=0;whiteSpace=wrap;html=1;" vertex="1" parent="1">
          <mxGeometry x="160" y="710" width="120" height="60" as="geometry" />
        </mxCell>
        <mxCell id="XMAbvpqeA-bFauw44eoh-97" value="Course id" style="ellipse;whiteSpace=wrap;html=1;" vertex="1" parent="1">
          <mxGeometry x="60" y="400" width="120" height="80" as="geometry" />
        </mxCell>
        <mxCell id="XMAbvpqeA-bFauw44eoh-98" value="Course Name" style="ellipse;whiteSpace=wrap;html=1;" vertex="1" parent="1">
          <mxGeometry x="430" y="710" width="120" height="80" as="geometry" />
        </mxCell>
        <mxCell id="XMAbvpqeA-bFauw44eoh-99" value="Semester" style="ellipse;whiteSpace=wrap;html=1;" vertex="1" parent="1">
          <mxGeometry x="300" y="420" width="120" height="80" as="geometry" />
        </mxCell>
        <mxCell id="XMAbvpqeA-bFauw44eoh-100" value="" style="endArrow=none;html=1;rounded=0;exitX=0.583;exitY=0.975;exitDx=0;exitDy=0;exitPerimeter=0;entryX=0.5;entryY=0;entryDx=0;entryDy=0;" edge="1" parent="1" source="XMAbvpqeA-bFauw44eoh-95" target="XMAbvpqeA-bFauw44eoh-96">
          <mxGeometry width="50" height="50" relative="1" as="geometry">
            <mxPoint x="460" y="565" as="sourcePoint" />
            <mxPoint x="510" y="515" as="targetPoint" />
          </mxGeometry>
        </mxCell>
        <mxCell id="XMAbvpqeA-bFauw44eoh-101" value="" style="endArrow=none;html=1;rounded=0;exitX=0.5;exitY=1;exitDx=0;exitDy=0;" edge="1" parent="1" source="XMAbvpqeA-bFauw44eoh-97" target="XMAbvpqeA-bFauw44eoh-96">
          <mxGeometry width="50" height="50" relative="1" as="geometry">
            <mxPoint x="770" y="770" as="sourcePoint" />
            <mxPoint x="820" y="720" as="targetPoint" />
          </mxGeometry>
        </mxCell>
        <mxCell id="XMAbvpqeA-bFauw44eoh-102" value="" style="endArrow=none;html=1;rounded=0;" edge="1" parent="1" source="XMAbvpqeA-bFauw44eoh-96" target="XMAbvpqeA-bFauw44eoh-98">
          <mxGeometry width="50" height="50" relative="1" as="geometry">
            <mxPoint x="530" y="680" as="sourcePoint" />
            <mxPoint x="690" y="814" as="targetPoint" />
          </mxGeometry>
        </mxCell>
        <mxCell id="XMAbvpqeA-bFauw44eoh-103" value="" style="endArrow=none;html=1;rounded=0;exitX=0.5;exitY=1;exitDx=0;exitDy=0;entryX=0.75;entryY=0;entryDx=0;entryDy=0;" edge="1" parent="1" source="XMAbvpqeA-bFauw44eoh-99" target="XMAbvpqeA-bFauw44eoh-96">
          <mxGeometry width="50" height="50" relative="1" as="geometry">
            <mxPoint x="580" y="586" as="sourcePoint" />
            <mxPoint x="640" y="710" as="targetPoint" />
          </mxGeometry>
        </mxCell>
        <mxCell id="XMAbvpqeA-bFauw44eoh-104" value="Instructors" style="ellipse;whiteSpace=wrap;html=1;" vertex="1" parent="1">
          <mxGeometry x="410" y="840" width="120" height="80" as="geometry" />
        </mxCell>
        <mxCell id="XMAbvpqeA-bFauw44eoh-105" value="" style="endArrow=none;html=1;rounded=0;exitX=0.5;exitY=1;exitDx=0;exitDy=0;" edge="1" parent="1" source="XMAbvpqeA-bFauw44eoh-96" target="XMAbvpqeA-bFauw44eoh-104">
          <mxGeometry width="50" height="50" relative="1" as="geometry">
            <mxPoint x="210" y="849" as="sourcePoint" />
            <mxPoint x="620" y="914" as="targetPoint" />
          </mxGeometry>
        </mxCell>
        <mxCell id="XMAbvpqeA-bFauw44eoh-106" value="Timings" style="ellipse;whiteSpace=wrap;html=1;" vertex="1" parent="1">
          <mxGeometry x="270" y="925" width="120" height="80" as="geometry" />
        </mxCell>
        <mxCell id="XMAbvpqeA-bFauw44eoh-107" value="" style="endArrow=none;html=1;rounded=0;exitX=0.5;exitY=1;exitDx=0;exitDy=0;" edge="1" parent="1" source="XMAbvpqeA-bFauw44eoh-96" target="XMAbvpqeA-bFauw44eoh-106">
          <mxGeometry width="50" height="50" relative="1" as="geometry">
            <mxPoint x="150" y="929" as="sourcePoint" />
            <mxPoint x="560" y="994" as="targetPoint" />
          </mxGeometry>
        </mxCell>
        <mxCell id="XMAbvpqeA-bFauw44eoh-122" value="Venue" style="ellipse;whiteSpace=wrap;html=1;" vertex="1" parent="1">
          <mxGeometry x="-30" y="940" width="120" height="80" as="geometry" />
        </mxCell>
        <mxCell id="XMAbvpqeA-bFauw44eoh-123" value="" style="endArrow=none;html=1;rounded=0;entryX=0.5;entryY=1;entryDx=0;entryDy=0;exitX=0.5;exitY=0;exitDx=0;exitDy=0;" edge="1" parent="1" source="XMAbvpqeA-bFauw44eoh-122" target="XMAbvpqeA-bFauw44eoh-96">
          <mxGeometry width="50" height="50" relative="1" as="geometry">
            <mxPoint x="90" y="865" as="sourcePoint" />
            <mxPoint x="-240" y="655" as="targetPoint" />
          </mxGeometry>
        </mxCell>
        <mxCell id="XMAbvpqeA-bFauw44eoh-126" value="" style="endArrow=none;html=1;rounded=0;exitX=1;exitY=0.5;exitDx=0;exitDy=0;entryX=0;entryY=0.5;entryDx=0;entryDy=0;" edge="1" parent="1" source="XMAbvpqeA-bFauw44eoh-96" target="XMAbvpqeA-bFauw44eoh-87">
          <mxGeometry width="50" height="50" relative="1" as="geometry">
            <mxPoint x="620" y="610" as="sourcePoint" />
            <mxPoint x="670" y="560" as="targetPoint" />
          </mxGeometry>
        </mxCell>
        <mxCell id="XMAbvpqeA-bFauw44eoh-128" value="" style="endArrow=none;html=1;rounded=0;exitX=1;exitY=0.5;exitDx=0;exitDy=0;entryX=0;entryY=0.5;entryDx=0;entryDy=0;" edge="1" parent="1" source="XMAbvpqeA-bFauw44eoh-87" target="XMAbvpqeA-bFauw44eoh-61">
          <mxGeometry width="50" height="50" relative="1" as="geometry">
            <mxPoint x="810" y="765" as="sourcePoint" />
            <mxPoint x="860" y="715" as="targetPoint" />
          </mxGeometry>
        </mxCell>
        <mxCell id="XMAbvpqeA-bFauw44eoh-129" value="" style="endArrow=none;html=1;rounded=0;exitX=0.5;exitY=0;exitDx=0;exitDy=0;entryX=0.5;entryY=1;entryDx=0;entryDy=0;" edge="1" parent="1" source="XMAbvpqeA-bFauw44eoh-72" target="XMAbvpqeA-bFauw44eoh-96">
          <mxGeometry width="50" height="50" relative="1" as="geometry">
            <mxPoint x="180" y="800" as="sourcePoint" />
            <mxPoint x="230" y="750" as="targetPoint" />
          </mxGeometry>
        </mxCell>
        <mxCell id="XMAbvpqeA-bFauw44eoh-130" value="enrolls" style="rhombus;whiteSpace=wrap;html=1;" vertex="1" parent="1">
          <mxGeometry x="-220" y="710" width="90" height="90" as="geometry" />
        </mxCell>
        <mxCell id="XMAbvpqeA-bFauw44eoh-132" value="" style="endArrow=none;html=1;rounded=0;exitX=1;exitY=0.5;exitDx=0;exitDy=0;entryX=0;entryY=0.5;entryDx=0;entryDy=0;" edge="1" parent="1" source="XMAbvpqeA-bFauw44eoh-50" target="XMAbvpqeA-bFauw44eoh-130">
          <mxGeometry width="50" height="50" relative="1" as="geometry">
            <mxPoint x="-270" y="750" as="sourcePoint" />
            <mxPoint x="-220" y="700" as="targetPoint" />
          </mxGeometry>
        </mxCell>
        <mxCell id="XMAbvpqeA-bFauw44eoh-134" value="" style="endArrow=none;html=1;rounded=0;entryX=1;entryY=0.5;entryDx=0;entryDy=0;exitX=0;exitY=0.5;exitDx=0;exitDy=0;" edge="1" parent="1" source="XMAbvpqeA-bFauw44eoh-96" target="XMAbvpqeA-bFauw44eoh-130">
          <mxGeometry width="50" height="50" relative="1" as="geometry">
            <mxPoint x="220" y="700" as="sourcePoint" />
            <mxPoint x="50" y="440" as="targetPoint" />
          </mxGeometry>
        </mxCell>
      </root>
    </mxGraphModel>
  </diagram>
</mxfile>
